/* XPM */
static char *xpm_[] = {
/* columns rows colors chars-per-pixel */
"32 32 34 1 ",
"  c #000747",
". c #141959",
"X c #514D90",
"o c #1B1E60",
"O c #6C64A9",
"+ c #4A478A",
"@ c #655EA3",
"# c #292A6C",
"$ c #0E1353",
"% c #9A8C7E",
"& c #A39475",
"* c #C8B353",
"= c #AC9C6D",
"- c #7E7498",
"; c #5E589D",
": c #EDD330",
"> c #FFE31F",
", c #DAC342",
"< c #D1BB4A",
"1 c #070D4D",
"2 c #756CA0",
"3 c #E3CB39",
"4 c #F6DB28",
"5 c #887C8F",
"6 c #222466",
"7 c #434184",
"8 c #918487",
"9 c #B6A464",
"0 c #2F3072",
"q c #363678",
"w c #BFAB5B",
"e c #585297",
"r c #3D3B7E",
"t c white",
/* pixels */
"                                ",
"                                ",
"                                ",
"                                ",
"                                ",
"              .X                ",
"              oO                ",
"              oO                ",
"              oO                ",
"           o+@OOO@+#            ",
"         $XOO%&O*=-O;o          ",
"        .@O=:>,O>>><-O#         ",
"       1;2<>343->:4>45O6        ",
"       7O*>>254>4-&>>4-@1       ",
"      1O8>>><O59-23>>>*O0       ",
"      6O*>>>>3%8%:>>>>>2+       ",
"      qO:>>>>>>>>>>>>>>8X       ",
"      qO>>>>>>>>>>>>>>>8X       ",
"      #O,>>>>>>>>>>>>>>-+       ",
"      .Ow>>>>>>>>>>>>>:O0       ",
"       ;->>>>>>>>>>>>>9O$       ",
"       qO*>>>>>>>>>>>42X        ",
"       1;23>>>>>>>>>>=Oo        ",
"        oO53>>>>>>>>*O7         ",
"         #@294>>>>3%Oe1         ",
"          .XOO888-OOr           ",
"            .qXXXX0$            ",
"                                ",
"                                ",
"                                ",
"                                ",
"                                "
};
