/* XPM */
static char *b37c8034010445f3f8550bc2478b86a11TIJjZPDYT0JvCCj[] = {
/* columns rows colors chars-per-pixel */
"32 32 185 2 ",
"   c black",
".  c #131919",
"X  c #2B3A3A",
"o  c #2F3F3F",
"O  c #324343",
"+  c #354646",
"@  c #384A4A",
"#  c #3A4D4D",
"$  c #3B4E4E",
"%  c #3A4C4C",
"&  c #212C2C",
"*  c #0F1414",
"=  c #394B4B",
"-  c #445A5A",
";  c white",
":  c #1E2929",
">  c #94C5C5",
",  c #95C5C5",
"<  c #95C6C6",
"1  c #253131",
"2  c #273333",
"3  c #93C3C3",
"4  c #91C0C0",
"5  c #93C4C4",
"6  c #405555",
"7  c #4D6565",
"8  c #4C6565",
"9  c #4E6666",
"0  c #4D6666",
"q  c #4B6363",
"w  c #567272",
"e  c #DBFFFF",
"r  c #6E9292",
"t  c #2F3E3E",
"y  c #96C7C7",
"u  c #B2EBEB",
"i  c #465C5C",
"p  c #496161",
"a  c #496060",
"s  c #4A6161",
"d  c #4A6262",
"f  c #EAFFFF",
"g  c black",
"h  c #0D1212",
"j  c #212C2C",
"k  c #242F2F",
"l  c #253131",
"z  c #263232",
"x  c #273434",
"c  c #283535",
"v  c #283636",
"b  c #293636",
"n  c #293636",
"m  c #232F2F",
"M  c #1B2323",
"N  c black",
"B  c #445B5B",
"V  c #84AFAF",
"C  c #82ADAD",
"Z  c #81ACAC",
"A  c #82ADAD",
"S  c #83AEAE",
"D  c #83AEAE",
"F  c #82ADAD",
"G  c #82ACAC",
"H  c #739898",
"J  c #506A6A",
"K  c #567272",
"L  c #698B8B",
"P  c #668686",
"I  c #668888",
"U  c #678888",
"Y  c #678989",
"T  c #678989",
"R  c #668787",
"E  c #658686",
"W  c #618080",
"Q  c #5F7E7E",
"!  c black",
"~  c #577373",
"^  c #607F7F",
"/  c #769C9C",
"(  c #5F7E7E",
")  c #638383",
"_  c #638282",
"`  c #6A8D8D",
"'  c #719696",
"]  c #7CA4A4",
"[  c azure",
"{  c #587575",
"}  c #628181",
"|  c black",
" . c #597676",
".. c #628282",
"X. c #597676",
"o. c #5F7E7E",
"O. c #6D9191",
"+. c #567272",
"@. c #587575",
"#. c #597676",
"$. c #597777",
"%. c #5A7777",
"&. c #597777",
"*. c #567272",
"=. c #3D5050",
"-. c #779D9D",
";. c #94C5C5",
":. c None",
">. c #80AAAA",
",. c #7FA8A8",
"<. c #7EA7A7",
"1. c #7DA6A6",
"2. c #7DA5A5",
"3. c #7AA2A2",
"4. c #5F7D7D",
"5. c #7EA7A7",
"6. c #618080",
"7. c #5A7777",
"8. c #5A7777",
"9. c #597676",
"0. c #587575",
"q. c #587474",
"w. c #587474",
"e. c #577373",
"r. c #577272",
"t. c #607F7F",
"y. c #D0FFFF",
"u. c #587575",
"i. c #628282",
"p. c #567373",
"a. c #638383",
"s. c #6B8D8D",
"d. c #557070",
"f. c #648484",
"g. c #648383",
"h. c black",
"j. c #536E6E",
"k. c #628282",
"l. c #516B6B",
"z. c #92C2C2",
"x. c #6C8F8F",
"c. c #4E6868",
"v. c #4F6969",
"b. c #4E6868",
"n. c #4D6666",
"m. c #4B6464",
"M. c #4B6363",
"N. c #4C6666",
"B. c #4B6363",
"V. c #354646",
"C. c #445B5B",
"Z. c #82ACAC",
"A. c #81ABAB",
"S. c #80AAAA",
"D. c #80A9A9",
"F. c #7FA8A8",
"G. c #7EA8A8",
"H. c #7EA7A7",
"J. c #7EA7A7",
"K. c #7AA1A1",
"L. c #5B7878",
"P. c #8EBBBB",
"I. c #324242",
"U. c #597575",
"Y. c #5C7979",
"T. c #5B7979",
"R. c #5B7878",
"E. c #5B7878",
"W. c #5A7777",
"Q. c #5B7878",
"!. c #5A7777",
"~. c #5A7777",
"^. c #5A7676",
"/. c #597575",
"(. c #5C7979",
"). c #D2FFFF",
"_. c #90BFBF",
"`. c #8CBABA",
"'. c #8DBCBC",
"]. c #8EBCBC",
"[. c #8EBDBD",
"{. c #92C2C2",
"}. c #8FBEBE",
"|. c #83ADAD",
" X c white",
/* pixels */
"                                                                ",
"                                                                ",
"                                                                ",
"                                                                ",
"                                                                ",
"                    . X o O + @ # $ $ $ % o & .                 ",
"                  g h j k l z x c v v b n m M *                 ",
"                  N B V C Z A S D D D F G H J =                 ",
"                  N K _.L P I U Y U T R E W Q -                 ",
"                  ! ~ `.^ / ( ) _ ) ` ' ] [ ; ;                 ",
"                  ! { '.} : > > > > , < < < < <                 ",
"                  |  .]...; 1                                   ",
"                  | X.[.o.| ! ! ! ! ! ! ! g 2 3                 ",
"                  | X.{.O.+.@.#.$.%.&.$.*.=.-.4                 ",
"                  | X.;.:.>.,.<.1.2.2.1.3.4.5.5                 ",
"                  |  .[.6.7.8.9.0.q.w.e.r.t.y.<                 ",
"                  ! u.].i.6 7 8 7 9 0 8 q w e <                 ",
"                  ! p.[.a.s.<                                   ",
"                  N d.}.f.g.r                                   ",
"                  h.j.}.k.!     ; ; ; ;   g ; t y               ",
"                  g l.z.x.c.v.b.n.m.M.m.N.B.V.; >               ",
"                    C.Z.|.A.S.D.F.G.H.J.H.K.L.P.<               ",
"                  u I.U.Y.T.R.E.W.Q.!.~.^./.(.).<               ",
"                  ; & i p p a p a s p d s p 9 f <               ",
"                                                                ",
"                                                                ",
"                                                                ",
"                                                                ",
"                                                                ",
"                                                                ",
"                                                                ",
"                                                                "
};
