/* XPM */
static char *xpm_[] = {
/* columns rows colors chars-per-pixel */
"32 32 181 2 ",
"   c #000000",
".  c #050509",
"X  c #09080D",
"o  c #0C0B12",
"O  c #0F0E1A",
"+  c #100F19",
"@  c #121113",
"#  c #16141B",
"$  c #1C1B24",
"%  c #1D1A2D",
"&  c #151326",
"*  c #1E1C33",
"=  c #211E33",
"-  c #25223B",
";  c #2A2738",
":  c #292642",
">  c #2F2947",
",  c #2E2A49",
"<  c #272442",
"1  c #312C4D",
"2  c #322D43",
"3  c #2E2B52",
"4  c #373255",
"5  c #3B3653",
"6  c #3C355C",
"7  c #39355C",
"8  c #3A3562",
"9  c #3E3969",
"0  c #3F3878",
"q  c #423B5C",
"w  c #453C63",
"e  c #463D6A",
"r  c #433D74",
"t  c #443E7E",
"y  c #4A4167",
"u  c #4A4268",
"i  c #464073",
"p  c #4D4274",
"a  c #4C467D",
"s  c #4E487A",
"d  c #524A7B",
"f  c #54517F",
"g  c #FFFF35",
"h  c #F4F73F",
"j  c #F6FB3D",
"k  c #FBFF39",
"l  c #A79F77",
"z  c #B6B36F",
"x  c #B8B66D",
"c  c #BCBA6C",
"v  c #ABA576",
"b  c #AEA974",
"n  c #ACA97B",
"m  c #B1AE79",
"M  c #B3B17F",
"N  c #C1BE69",
"B  c #CDCC5D",
"V  c #D5D657",
"C  c #DBDC53",
"Z  c #D3D35A",
"A  c #DFE050",
"S  c #ECEE45",
"D  c #E2E54D",
"F  c #E8EB49",
"G  c #E7EA49",
"H  c #EEF144",
"J  c #F2F441",
"K  c #F4F840",
"L  c #E1E251",
"P  c #C3C365",
"I  c #C8C767",
"U  c #4E4882",
"Y  c #534C8B",
"T  c #584A83",
"R  c #544C96",
"E  c #5A539C",
"W  c #5A5397",
"Q  c #645696",
"!  c #645B9D",
"~  c #655799",
"^  c #76689D",
"/  c #5F57A8",
"(  c #5D55A1",
")  c #645CA6",
"_  c #6C5EA4",
"`  c #6657AA",
"'  c #655DAD",
"]  c #695EAA",
"[  c #645CB2",
"{  c #685FB0",
"}  c #6660A6",
"|  c #6C63A5",
" . c #6562AA",
".. c #6C64AB",
"X. c #6E69AF",
"o. c #736BA4",
"O. c #726BAE",
"+. c #7464A8",
"@. c #7870AB",
"#. c #6C64B2",
"$. c #6869B2",
"%. c #726AB2",
"&. c #7F6BB0",
"*. c #6F71B7",
"=. c #6677BD",
"-. c #7D76B2",
";. c #7E7BB7",
":. c #7079BE",
">. c #7076BC",
",. c #6173C3",
"<. c #637BC5",
"1. c #707DC2",
"2. c #8A7F8E",
"3. c #817494",
"4. c #847A97",
"5. c #8366A6",
"6. c #8D6AA7",
"7. c #986EA8",
"8. c #817AA6",
"9. c #857EAA",
"0. c #826CB0",
"q. c #8375B1",
"w. c #A06EA4",
"e. c #B572A2",
"r. c #CD769F",
"t. c #D3779F",
"y. c #DB789E",
"u. c #D6789E",
"i. c #C374A1",
"p. c #6E86C9",
"a. c #658ECD",
"s. c #6F89CC",
"d. c #6283C9",
"f. c #7085C9",
"g. c #7084C8",
"h. c #6491CD",
"j. c #6990CD",
"k. c #628DD2",
"l. c #6496D3",
"z. c #659CD6",
"x. c #6B9AD7",
"c. c #6A9DD9",
"v. c #649ED9",
"b. c #66A4DD",
"n. c #63ABE3",
"m. c #62B5EA",
"M. c #62BBEE",
"N. c #62BEF1",
"B. c #5FCDFC",
"V. c #5ED2FF",
"C. c #61C4F5",
"Z. c #60CAFA",
"A. c #60C9F6",
"S. c #8D828C",
"D. c #928889",
"F. c #95918C",
"G. c #9C9785",
"H. c #9D9793",
"J. c #8B8594",
"K. c #A39F87",
"L. c #A6A383",
"P. c #A9A685",
"I. c #8780A7",
"U. c #8A84A1",
"Y. c #8F89A2",
"T. c #8F89BE",
"R. c #9287BB",
"E. c #9590C1",
"W. c #A39DCC",
"Q. c #A098C5",
"!. c #ADA9D2",
"~. c #B9B6D6",
"^. c #C2BEDE",
"/. c #C4C2DE",
"(. c #C9C5DE",
"). c #CDCBE2",
"_. c #D1CEE3",
"`. c #DCDAEA",
"'. c #D1D0E5",
"]. c #EBEAF3",
"[. c white",
/* pixels */
"          q T f 5 $                                             ",
"      , } %.0.@.%.) ,                                           ",
"    : X.6.e.r.t.i.6...6 : , ; %                                 ",
"    ! 6.y.u.u.t.y.r.+.X.%.%.X...~ p 1                           ",
"  1 %.e.i.r.t.u.y.y.w.| l.B.m.b.j.:.%.Q e -     . O & & X       ",
"@ s %...+._ 5.5.6.7.6.~ h.V.V.V.V.B.M.b.p.X.) R W | o.| ( 8     ",
"@ Y !.'.^.!...;.;. .O.+.h.V.B.B.B.V.V.m.<. .4.L.I L F L m %.i   ",
"@ Y ~.[.[.]...`.).} ).q.h.V.B.V.V.m.<.] 2.P K k g k g g g c ' ; ",
"  i W.[.[.].O.E.T.O.'.+.b.V.V.M.d.' S.B k g k k k g g k k j U.9 ",
"  - ..).[.[._.-.-.~.R.$.Z.B.b. .3.B k g k k k k k P D g k g L.i ",
"    ) | E.).`./.W.q.} m.A.=.` G.J g k k k k k k j o.J.h g H I.8 ",
"  4 :.h. .] | ..| <.m.A.=._ x k g k k g g k k g G o.[ U.P.Y.W   ",
"  T x.V.A.m.n.m.B.B.B.=.^ Z g k j k k c D g g g P.W % 8 t 8 #   ",
"$ | m.V.V.V.V.V.V.V.a.^ V g k k k k K | O.n N K.%.:             ",
"2 X.A.V.Z.B.B.B.B.M.' c g k j k k g D ..U R ' W ,               ",
"q 1.Z.B.B.B.B.B.V.l.^ j g g g g g k P.E . . o .                 ",
"w g.B.B.B.B.B.B.B.,.l g k j S D B F.[ :                         ",
"y g.B.B.B.B.B.B.B.,.b g g v ] ..[ ( *                           ",
"q f.B.B.B.B.B.B.V.k.D.g g C c x F...1                           ",
"5 >.B.B.B.B.B.B.V.m...V g k g g g n ) * < 3 =                   ",
"; X.M.V.B.B.B.B.B.B.<.4.K k k k g B [ ] @.Y.X.U o               ",
"# ~ b.V.B.B.B.B.B.V.M.[ v g k k g D F.P h g Z -.8 o 3 r 7 o     ",
"  u s.V.B.B.B.B.B.B.V.v._ z k g g k g g g k g c / ( 8.H.9.Y X   ",
"  = O.m.V.B.B.B.B.B.B.V.a.` G.H g k k j j k g G o.L.H g G 9.3   ",
"  . d f.V.Z.Z.Z.B.B.B.B.V.z.' ^ c h g g k k j k F k k k g M r   ",
"    = ..n.V.V.Z.B.B.B.B.Z.V.m.<.] 3.v B S k g g g g g g g H.0   ",
"      6 *.n.V.Z.Z.B.B.B.B.B.V.B.m.a.,.#.^ D.b P V D A B H.#.-   ",
"        e %.n.V.V.B.B.B.B.B.B.B.B.V.B.C.n.<.[ #.%.O.O...) 4     ",
"          w %.c.Z.V.V.Z.B.B.B.B.V.V.B.N.x.*._ s 1 < , -         ",
"            1 ~ 1.b.N.Z.B.B.B.C.m.c.1.| p :                     ",
"              + q Q X.1.s.s.p.*._ d 1 #                         ",
"                  # : q u u q 2                                 "
};
