/* XPM */
static char *xpm_[] = {
/* columns rows colors chars-per-pixel */
"32 32 157 2 ",
"   c #000747",
".  c #363678",
"X  c #655EA3",
"o  c #6C64A9",
"O  c #5E81C4",
"+  c #5798DA",
"@  c #56A2E2",
"#  c #59A3E3",
"$  c #5BA4E4",
"%  c #5EA6E5",
"&  c #61A8E6",
"*  c #64A9E7",
"=  c #66ABE9",
"-  c #69ACEA",
";  c #6CAEEB",
":  c #6EAFEC",
">  c #71B1ED",
",  c #74B2EE",
"<  c #76B4EF",
"1  c #79B5F0",
"2  c #7CB7F1",
"3  c #7EB8F2",
"4  c #81BAF4",
"5  c #84BCF5",
"6  c #86BDF6",
"7  c #89BFF7",
"8  c #8CC0F8",
"9  c #8EC2F9",
"0  c #91C3FA",
"q  c #94C5FB",
"w  c #8EB4ED",
"e  c #8296D3",
"r  c #5E7CC0",
"t  c #4E9DDF",
"y  c #519EE0",
"u  c #53A0E1",
"i  c #97C6FC",
"p  c #7D89C9",
"a  c #5E589D",
"s  c #528DD0",
"d  c #4B9BDE",
"f  c #8CAEE7",
"g  c #4995D8",
"h  c #499ADD",
"j  c #4397DA",
"k  c #4698DB",
"l  c #5C92D4",
"z  c #5E93D5",
"x  c #6094D5",
"c  c #6296D6",
"v  c #6497D7",
"b  c #6698D8",
"n  c #6899D9",
"m  c #6A9ADA",
"M  c #6C9CDA",
"N  c #6E9DDB",
"B  c #709EDC",
"V  c #729FDD",
"C  c #74A0DE",
"Z  c #76A1DF",
"A  c #78A2DF",
"S  c #7AA3E0",
"D  c #7FAFEA",
"F  c #4195D9",
"G  c #5988CB",
"H  c #778FCF",
"J  c #3E94D8",
"K  c #4B96D9",
"L  c #878EC3",
"P  c #B2D1F0",
"I  c #B1CEF1",
"U  c #AFCCF2",
"Y  c #AEC9F2",
"T  c #ADC7F3",
"R  c #ABC5F4",
"E  c #AAC2F5",
"W  c #A8C0F6",
"Q  c #A7BDF7",
"!  c #A6BBF8",
"~  c #A4B9F9",
"^  c #A3B6F9",
"/  c #A1B4FA",
"(  c #A0B1FB",
")  c #9FAFFC",
"_  c #9AA8F8",
"`  c #7E7FC9",
"'  c #80B5EF",
"]  c #3B92D7",
"[  c #4F8BCF",
"{  c #B0CFEA",
"}  c #B3D3EF",
"|  c #9DACFD",
" . c #3991D6",
".. c #4D8ACE",
"X. c #B6D8ED",
"o. c #B5D6EE",
"O. c #368FD5",
"+. c #4B89CD",
"@. c #B8DBEC",
"#. c #348ED4",
"$. c #4988CC",
"%. c #B9DDEB",
"&. c #318CD3",
"*. c #4786CC",
"=. c #BBDFEA",
"-. c #2E8AD2",
";. c #4585CB",
":. c #BCE2EA",
">. c #2C89D1",
",. c #4384CA",
"<. c #BDE4E9",
"1. c #2887CF",
"2. c #4283C9",
"3. c #BFE7E8",
"4. c #2686CE",
"5. c #3F82C8",
"6. c #C0E9E7",
"7. c #2384CD",
"8. c #3D81C7",
"9. c #C2EBE6",
"0. c #2183CC",
"q. c #3B80C7",
"w. c #C3EEE5",
"e. c #1E81CB",
"r. c #397EC6",
"t. c #C4F0E4",
"y. c #1B80CA",
"u. c #377DC5",
"i. c #C6F3E3",
"p. c #197EC9",
"a. c #357CC4",
"s. c #C7F5E3",
"d. c #167DC8",
"f. c #337BC3",
"g. c #C9F7E2",
"h. c #137BC7",
"j. c #317AC3",
"k. c #CAFAE1",
"l. c #1179C6",
"z. c #257CC6",
"x. c #96A6C1",
"c. c #C4F1DD",
"v. c #559CDD",
"b. c #0E78C5",
"n. c #3E73BB",
"m. c #6A67AC",
"M. c #0B76C3",
"N. c #0975C2",
"B. c #1372BE",
"V. c #386BB5",
"C. c #0674C1",
"Z. c #2070BB",
"A. c #0F74C1",
"S. c #4B92D5",
"D. c #5C80C3",
"F. c #292A6C",
"G. c white",
/* pixels */
"  . X o o o o o o o o o o o o o o o o o o o o o o o o o o X .   ",
". o O + @ # $ % & * = - ; : > , < 1 2 3 4 5 6 7 8 9 0 q w e o . ",
"X r t y u @ # $ % & * = - ; : > , < 1 2 3 4 5 6 7 8 9 0 q i p a ",
"o s d t y u @ # $ % & * = - ; : > , < 1 2 3 4 5 6 7 8 9 0 q f o ",
"o g h d t y u @ # $ % & * = - ; : > , < 1 2 3 4 5 6 7 8 9 0 q o ",
"o j k h d t y + l z x c v b n m M N B V C Z A S D 5 6 7 8 9 0 o ",
"o F j k h d G o o o o o o o o o o o o o o o o o o H 5 6 7 8 9 o ",
"o J F j k K o L P I U Y T R E W Q ! ~ ^ / ( ) _ ` o ' 5 6 7 8 o ",
"o ] J F j [ o { } P I U Y T R E W Q ! ~ ^ / ( ) | o S 4 5 6 7 o ",
"o  .] J F ..o X.o.} P I U Y T R E W Q ! ~ ^ / ( ) o A 3 4 5 6 o ",
"o O. .] J +.o @.X.o.} P I U Y T R E W Q ! ~ ^ / ( o Z 2 3 4 5 o ",
"o #.O. .] $.o %.@.X.o.} P I U Y T R E W Q ! ~ ^ / o C 1 2 3 4 o ",
"o &.#.O. .*.o =.%.@.X.o.} P I U Y T R E W Q ! ~ ^ o V < 1 2 3 o ",
"o -.&.#.O.;.o :.=.%.@.X.o.} P I U Y T R E W Q ! ~ o B , < 1 2 o ",
"o >.-.&.#.,.o <.:.=.%.@.X.o.} P I U Y T R E W Q ! o N > , < 1 o ",
"o 1.>.-.&.2.o 3.<.:.=.%.@.X.o.} P I U Y T R E W Q o M : > , < o ",
"o 4.1.>.-.5.o 6.3.<.:.=.%.@.X.o.} P I U Y T R E W o m ; : > , o ",
"o 7.4.1.>.8.o 9.6.3.<.:.=.%.@.X.o.} P I U Y T R E o n - ; : > o ",
"o 0.7.4.1.q.o w.9.6.3.<.:.=.%.@.X.o.} P I U Y T R o b = - ; : o ",
"o e.0.7.4.r.o t.w.9.6.3.<.:.=.%.@.X.o.} P I U Y T o v * = - ; o ",
"o y.e.0.7.u.o i.t.w.9.6.3.<.:.=.%.@.X.o.} P I U Y o c & * = - o ",
"o p.y.e.0.a.o s.i.t.w.9.6.3.<.:.=.%.@.X.o.} P I U o x % & * = o ",
"o d.p.y.e.f.o g.s.i.t.w.9.6.3.<.:.=.%.@.X.o.} P I o z $ % & * o ",
"o h.d.p.y.j.o k.g.s.i.t.w.9.6.3.<.:.=.%.@.X.o.} P o l # $ % & o ",
"o l.h.d.p.z.o x.c.g.s.i.t.w.9.6.3.<.:.=.%.@.X.{ L o v.@ # $ % o ",
"o b.l.h.d.p.n.o o o o o o o o o o o o o o o o o m.G y u @ # $ o ",
"o M.b.l.h.d.p.y.j.f.a.u.r.q.8.5.2.,.;.*.$.+...[ h d t y u @ # o ",
"o N.M.b.l.h.d.p.y.e.0.7.4.1.>.-.&.#.O. .] J F j k h d t y u @ o ",
"o B.N.M.b.l.h.d.p.y.e.0.7.4.1.>.-.&.#.O. .] J F j k h d t y + o ",
"X V.C.N.M.b.l.h.d.p.y.e.0.7.4.1.>.-.&.#.O. .] J F j k h d t O X ",
". o V.Z.A.M.b.l.h.d.p.y.e.0.7.4.1.>.-.&.#.O. .] J F j S.s D.o . ",
"  . X o o o o o o o o o o o o o o o o o o o o o o o o o o a F.  "
};
